<mxfile host="65bd71144e">
    <diagram id="tjotOBQvCvSWga7KLpYB" name="第 1 页">
        <mxGraphModel dx="548" dy="625" grid="1" gridSize="10" guides="1" tooltips="1" connect="1" arrows="1" fold="1" page="1" pageScale="1" pageWidth="827" pageHeight="1169" background="none" math="0" shadow="0">
            <root>
                <mxCell id="0"/>
                <mxCell id="1" parent="0"/>
                <mxCell id="40" value="Vertical Flow Layout" style="swimlane;startSize=20;horizontal=1;childLayout=flowLayout;flowOrientation=north;resizable=0;interRankCellSpacing=50;containerType=tree;" vertex="1" parent="1">
                    <mxGeometry x="200" y="130" width="270" height="460" as="geometry"/>
                </mxCell>
                <mxCell id="41" value="Start" style="whiteSpace=wrap;html=1;" vertex="1" parent="40">
                    <mxGeometry x="85" y="40" width="100" height="40" as="geometry"/>
                </mxCell>
                <mxCell id="42" value="Task" style="whiteSpace=wrap;html=1;" vertex="1" parent="40">
                    <mxGeometry x="20" y="130" width="100" height="40" as="geometry"/>
                </mxCell>
                <mxCell id="43" value="" style="html=1;curved=1;noEdgeStyle=1;orthogonal=1;" edge="1" parent="40" source="41" target="42">
                    <mxGeometry relative="1" as="geometry">
                        <Array as="points">
                            <mxPoint x="112.5" y="92"/>
                            <mxPoint x="70" y="118"/>
                        </Array>
                    </mxGeometry>
                </mxCell>
                <mxCell id="44" value="Task" style="whiteSpace=wrap;html=1;" vertex="1" parent="40">
                    <mxGeometry x="150" y="130" width="100" height="40" as="geometry"/>
                </mxCell>
                <mxCell id="45" value="" style="html=1;curved=1;noEdgeStyle=1;orthogonal=1;" edge="1" parent="40" source="41" target="44">
                    <mxGeometry relative="1" as="geometry">
                        <Array as="points">
                            <mxPoint x="157.5" y="92"/>
                            <mxPoint x="200" y="118"/>
                        </Array>
                    </mxGeometry>
                </mxCell>
                <mxCell id="46" value="End" style="whiteSpace=wrap;html=1;" vertex="1" parent="40">
                    <mxGeometry x="85" y="220" width="100" height="40" as="geometry"/>
                </mxCell>
                <mxCell id="47" value="" style="html=1;curved=1;noEdgeStyle=1;orthogonal=1;" edge="1" parent="40" source="42" target="46">
                    <mxGeometry relative="1" as="geometry">
                        <Array as="points">
                            <mxPoint x="70" y="182"/>
                            <mxPoint x="112.5" y="208"/>
                        </Array>
                    </mxGeometry>
                </mxCell>
                <mxCell id="48" value="" style="html=1;curved=1;noEdgeStyle=1;orthogonal=1;" edge="1" parent="40" source="44" target="46">
                    <mxGeometry relative="1" as="geometry">
                        <Array as="points">
                            <mxPoint x="200" y="182"/>
                            <mxPoint x="157.5" y="208"/>
                        </Array>
                    </mxGeometry>
                </mxCell>
                <mxCell id="49" value="" style="html=1;curved=1;noEdgeStyle=1;orthogonal=1;" edge="1" target="50" source="46" parent="40">
                    <mxGeometry relative="1" as="geometry">
                        <mxPoint x="380" y="460" as="sourcePoint"/>
                        <Array as="points">
                            <mxPoint x="135" y="272"/>
                            <mxPoint x="135" y="298"/>
                        </Array>
                    </mxGeometry>
                </mxCell>
                <mxCell id="50" value="End" style="whiteSpace=wrap;html=1;" vertex="1" parent="40">
                    <mxGeometry x="85" y="310" width="100" height="40" as="geometry"/>
                </mxCell>
                <mxCell id="51" value="" style="html=1;curved=1;noEdgeStyle=1;orthogonal=1;" edge="1" target="52" source="50" parent="40">
                    <mxGeometry relative="1" as="geometry">
                        <mxPoint x="425" y="510" as="sourcePoint"/>
                        <Array as="points">
                            <mxPoint x="112.5" y="362"/>
                            <mxPoint x="70" y="388"/>
                        </Array>
                    </mxGeometry>
                </mxCell>
                <mxCell id="52" value="End" style="whiteSpace=wrap;html=1;" vertex="1" parent="40">
                    <mxGeometry x="20" y="400" width="100" height="40" as="geometry"/>
                </mxCell>
                <mxCell id="53" value="" style="html=1;curved=1;noEdgeStyle=1;orthogonal=1;" edge="1" target="54" source="50" parent="40">
                    <mxGeometry relative="1" as="geometry">
                        <mxPoint x="405" y="560" as="sourcePoint"/>
                        <Array as="points">
                            <mxPoint x="157.5" y="362"/>
                            <mxPoint x="200" y="388"/>
                        </Array>
                    </mxGeometry>
                </mxCell>
                <mxCell id="54" value="End" style="whiteSpace=wrap;html=1;" vertex="1" parent="40">
                    <mxGeometry x="150" y="400" width="100" height="40" as="geometry"/>
                </mxCell>
            </root>
        </mxGraphModel>
    </diagram>
</mxfile>